<svg aria-hidden="true" style="position: absolute; width: 0; height: 0; overflow: hidden;" version="1.1" xmlns="http://www.w3.org/2000/svg" xmlns:xlink="http://www.w3.org/1999/xlink">
<defs>
<symbol id="icon-burger" viewBox="0 0 34 32">
<path fill="#ef3959" style="fill: var(--color1, #ef3959)" d="M32.381 27.429c0.486 0.001 0.952 0.186 1.306 0.52s0.566 0.789 0.594 1.273-0.129 0.962-0.441 1.334c-0.312 0.372-0.754 0.612-1.236 0.669l-0.223 0.013h-30.476c-0.486-0-0.952-0.186-1.305-0.52s-0.565-0.789-0.594-1.273c-0.028-0.485 0.129-0.962 0.441-1.334s0.754-0.612 1.236-0.669l0.223-0.013h30.476zM32.381 14.095c0.505 0 0.99 0.201 1.347 0.558s0.558 0.842 0.558 1.347-0.201 0.99-0.558 1.347c-0.357 0.357-0.842 0.558-1.347 0.558h-30.476c-0.505 0-0.99-0.201-1.347-0.558s-0.558-0.842-0.558-1.347c0-0.505 0.201-0.99 0.558-1.347s0.842-0.558 1.347-0.558h30.476zM32.381 0.762c0.505 0 0.99 0.201 1.347 0.558s0.558 0.842 0.558 1.347-0.201 0.99-0.558 1.347c-0.357 0.357-0.842 0.558-1.347 0.558h-30.476c-0.505 0-0.99-0.201-1.347-0.558s-0.558-0.842-0.558-1.347c0-0.505 0.201-0.99 0.558-1.347s0.842-0.558 1.347-0.558h30.476z"></path>
</symbol>
<symbol id="icon-lang-icon" viewBox="0 0 43 32">
<path fill="#202053" style="fill: var(--color1, #202053)" d="M11.004 12.418v4.552c0 0.64 0.155 1.115 0.465 1.425 0.317 0.31 0.754 0.465 1.311 0.465 0.551 0 0.981-0.155 1.29-0.465 0.317-0.31 0.475-0.785 0.475-1.425v-4.552h0.939v4.542c0 0.599-0.12 1.105-0.361 1.517-0.241 0.406-0.568 0.709-0.981 0.908-0.406 0.2-0.864 0.299-1.373 0.299s-0.97-0.1-1.383-0.299c-0.406-0.2-0.729-0.502-0.97-0.908-0.234-0.413-0.351-0.919-0.351-1.517v-4.542h0.939zM21.304 18.013h-3.138l-0.578 1.6h-0.991l2.601-7.154h1.084l2.591 7.154h-0.991l-0.578-1.6zM21.035 17.249l-1.301-3.634-1.301 3.634h2.601z"></path>
<path fill="#202053" style="fill: var(--color1, #202053)" d="M29.419 17.634c-0.069 0-0.134-0.027-0.182-0.076l-2.753-2.753c-0.095-0.102-0.092-0.26 0.006-0.358s0.257-0.101 0.358-0.006l2.57 2.57 2.57-2.57c0.102-0.095 0.26-0.092 0.358 0.006s0.101 0.257 0.006 0.358l-2.753 2.753c-0.048 0.049-0.114 0.076-0.182 0.076z"></path>
</symbol>
</defs>
</svg>
