<svg aria-hidden="true" style="position: absolute; width: 0; height: 0; overflow: hidden;" version="1.1" xmlns="http://www.w3.org/2000/svg" xmlns:xlink="http://www.w3.org/1999/xlink">
<defs>
<symbol id="icon-burger" viewBox="0 0 34 32">
<path fill="#ef3959" style="fill: var(--color1, #ef3959)" d="M32.381 27.429c0.486 0.001 0.952 0.186 1.306 0.52s0.566 0.789 0.594 1.273-0.129 0.962-0.441 1.334c-0.312 0.372-0.754 0.612-1.236 0.669l-0.223 0.013h-30.476c-0.486-0-0.952-0.186-1.305-0.52s-0.565-0.789-0.594-1.273c-0.028-0.485 0.129-0.962 0.441-1.334s0.754-0.612 1.236-0.669l0.223-0.013h30.476zM32.381 14.095c0.505 0 0.99 0.201 1.347 0.558s0.558 0.842 0.558 1.347-0.201 0.99-0.558 1.347c-0.357 0.357-0.842 0.558-1.347 0.558h-30.476c-0.505 0-0.99-0.201-1.347-0.558s-0.558-0.842-0.558-1.347c0-0.505 0.201-0.99 0.558-1.347s0.842-0.558 1.347-0.558h30.476zM32.381 0.762c0.505 0 0.99 0.201 1.347 0.558s0.558 0.842 0.558 1.347-0.201 0.99-0.558 1.347c-0.357 0.357-0.842 0.558-1.347 0.558h-30.476c-0.505 0-0.99-0.201-1.347-0.558s-0.558-0.842-0.558-1.347c0-0.505 0.201-0.99 0.558-1.347s0.842-0.558 1.347-0.558h30.476z"></path>
</symbol>
</defs>
</svg>
